<svg width="1233" height="1256" xmlns="http://www.w3.org/2000/svg" xmlns:xlink="http://www.w3.org/1999/xlink" xml:space="preserve" overflow="hidden"><defs><clipPath id="clip0"><rect x="22" y="13" width="1233" height="1256"/></clipPath></defs><g clip-path="url(#clip0)" transform="translate(-22 -13)"><path d="M58.4999 444C58.4999 226.676 235.571 50.5 454 50.5 672.429 50.5 849.5 226.676 849.5 444 849.5 661.324 672.429 837.5 454 837.5 235.571 837.5 58.4999 661.324 58.4999 444Z" stroke="#C88900" stroke-width="68.75" stroke-linecap="butt" stroke-linejoin="miter" stroke-miterlimit="8" stroke-opacity="0.85098" fill="none" fill-rule="evenodd"/><path d="M429.5 837.5C429.5 619.9 606.571 443.5 825 443.5 1043.43 443.5 1220.5 619.9 1220.5 837.5 1220.5 1055.1 1043.43 1231.5 825 1231.5 606.571 1231.5 429.5 1055.1 429.5 837.5Z" stroke="#C88900" stroke-width="68.75" stroke-linecap="butt" stroke-linejoin="miter" stroke-miterlimit="8" stroke-opacity="0.85098" fill="none" fill-rule="evenodd"/></g></svg>